<svg viewBox="0 0 512 512" width="100%" height="100%" version="1.1" xmlns="http://www.w3.org/2000/svg"><path fill="currentColor" d="M289.06 312.313c6.282-5.62 13.225-6.832 18.074-6.832 6.281 0 12.894-3.086 17.853-8.265 7.493-7.825 5.73-25.237-2.866-29.204-1.873-.882-3.416-2.204-3.416-2.865 0-.772 2.425-5.62 5.4-10.69 2.975-5.07 5.84-10.8 6.392-12.563.992-3.196.992-3.196-1.763.22-8.376 10.69-25.457 38.902-42.98 70.97-4.077 7.384-4.187 7.825-.991 4.188 1.983-2.314 3.636-4.187 4.298-4.959M245.09 433.205c-5.4-2.534-8.265-5.95-10.359-12.563-.992-3.196-5.07-9.036-9.477-13.885-4.298-4.629-10.14-11.461-13.115-15.318-4.848-6.282-6.17-7.163-13.003-8.596-4.188-.882-15.98-1.543-26.339-1.543-28.101 0-26.559-2.204 2.314-3.416 13.666-.551 25.567-1.433 26.45-2.094 3.195-1.984-.993-6.722-7.164-8.265-9.918-2.535-48.048-15.429-47.497-15.98.33-.33 12.122 1.874 26.228 4.96 14.106 3.085 26.338 5.51 27.11 5.51.771 0 1.432-.882 1.432-2.094 0-1.212-4.298-4.188-10.028-7.053-14.106-7.053-51.575-29.424-53.669-31.959-.992-1.212 9.257 3.527 22.592 10.47 21.93 11.35 35.265 16.86 40.664 16.86 2.755 0-1.212-6.281-11.35-18.403-36.588-43.42-41.547-54.66-40.114-91.799 1.102-28.873 3.637-45.844 9.808-65.68l5.18-16.641-3.637-8.045c-1.984-4.408-4.629-9.147-5.951-10.47-3.086-3.415-8.265-3.085-10.139.552-3.526 6.612-.33 35.044 5.07 45.513 1.102 2.205 1.873 5.62 1.653 7.715-.441 3.416-.772 3.085-4.298-3.527-10.47-20.057-15.649-46.946-12.012-62.264 2.424-10.249 9.036-16.64 17.081-16.64 6.502 0 8.265 1.542 20.498 17.852 6.391 8.486 9.808 9.588 20.828 6.502 44.962-12.563 83.754-13.004 122.435-1.433 15.759 4.74 18.073 4.408 24.465-2.534 2.975-3.196 5.4-6.282 5.4-6.943 0-.551 2.534-3.857 5.73-7.273 4.629-5.07 6.612-6.172 10.47-6.172 13.003 0 19.064 10.36 18.734 32.4-.11 12.342-.772 15.318-5.62 28.983-2.976 8.375-6.723 17.632-8.376 20.718l-2.865 5.51-.11-5.62c0-3.086.881-5.4 1.432-7.053 1.212-3.857 6.833-22.812 6.833-32.18 0-11.901-.992-14.987-5.07-15.979-4.408-1.102-8.926 3.196-12.893 12.233-3.417 7.934-3.306 8.816 2.755 27.881 5.95 18.845 10.138 53.448 9.257 75.82-.992 26.668-6.282 37.248-37.47 75.047-11.57 13.996-16.309 20.608-15.427 21.49 1.873 1.873 16.75-3.747 38.35-14.657 13.445-6.833 24.796-12.343 25.347-12.343 2.755 0-3.747 4.188-29.314 18.624-37.028 20.939-35.265 19.837-33.612 21.49.992.991 9.698-.331 27.33-4.188 14.216-3.086 26.118-5.4 26.339-5.18.44.441-27.551 10.139-42.098 14.547-6.171 1.874-10.8 4.188-12.122 5.951l-2.094 2.975 22.371 1.543c12.343.882 24.796 1.653 27.771 1.764 2.976.11 4.96.55 4.408 1.212-.55.55-12.342 1.432-26.007 1.873-13.776.441-26.67 1.543-28.763 2.314-2.094.772-6.282 5.07-9.478 9.478s-8.595 10.91-12.122 14.547c-3.526 3.636-7.604 9.697-9.147 13.665-4.077 10.138-7.934 12.563-20.938 13.114-7.053.33-11.902 0-14.657-1.323m-22.371-132.793c-12.122-21.93-25.898-44.522-33.832-55.432-6.723-9.257-5.62-4.519 1.873 8.485 2.976 5.07 5.29 9.919 5.29 10.69 0 .771-1.543 2.094-3.416 2.755-5.07 1.984-8.045 8.816-7.384 17.192.992 12.342 8.486 18.844 23.804 20.718 10.249 1.212 14.657 3.416 19.395 9.587 1.984 2.645 3.857 4.85 4.078 4.85.44.11-4.078-8.376-9.808-18.845M75.158 110.753c2.755 0 4.96 2.204 4.96 4.96s-2.205 4.959-4.96 4.959-4.96-2.204-4.96-4.96 2.205-4.959 4.96-4.959m365.651 1.653c2.755 0 4.96 2.204 4.96 4.96s-2.205 4.959-4.96 4.959-4.959-2.204-4.959-4.96 2.204-4.959 4.96-4.959M77.141 90.036l22.37-19.947 4.188 4.738-8.265 7.384 12.233 13.775-5.951 5.29L89.484 87.5l-8.265 7.383-4.077-4.849m25.787-23.473l6.502-4.518 5.07 7.273 13.995-9.698-5.07-7.273 6.503-4.518 14.105 20.387-6.501 4.519-5.07-7.384-13.996 9.698 5.07 7.383-6.502 4.519-14.106-20.388m33.612-21.82l24.575-12.232 2.534 5.18-17.963 8.926 1.543 3.195 16.971-8.375 2.425 4.849-16.971 8.375 1.763 3.527 18.073-8.927 2.645 5.29-24.685 12.233-10.91-22.04m39.452-18.625l25.126-7.273 1.653 5.62-17.963 5.18 1.323 4.518 17.081-4.96 1.543 5.51-17.081 4.96 2.424 8.265-7.273 2.094-6.833-23.914m31.077-8.265l7.494-.882 1.212 11.351c.33 2.645.551 4.188.772 4.849.33 1.102 1.212 1.763 2.644 1.763 1.323 0 3.196-.11 5.841-.33 2.645-.331 4.518-.551 5.62-.882 1.543-.44 2.315-1.433 2.315-2.976 0-1.322-.11-2.755-.22-4.408l-1.213-11.35 7.494-.882 1.212 11.35c.33 3.968.551 6.503.44 7.825-.11 2.094-.88 3.747-2.424 4.849-1.212.882-3.195 1.543-6.06 1.984-1.323.22-3.417.44-6.282.771-4.188.44-7.274.661-9.037.661-1.322 0-2.424-.11-3.306-.33s-1.543-.662-2.204-1.102c-.882-.772-1.433-1.653-1.763-2.866-.441-1.322-.661-2.975-.992-4.959l-.44-3.196-1.103-11.24m38.791-3.637l27.44.661-.11 5.841-20.056-.44-.11 3.526 18.954.44-.11 5.4-18.955-.44-.11 3.967 20.167.44-.11 5.952-27.55-.662.55-24.685m33.061 1.102l7.824 1.102-2.644 18.294 17.412 2.534-.882 6.282-25.347-3.747 3.637-24.465m32.51 30.526l7.604-23.583 17.412 5.62c4.077 1.323 6.502 2.204 7.163 2.425.771.33 1.543.881 1.983 1.432a5.49 5.49 0 011.102 2.094c.22.772.22 1.543 0 2.314-.22.882-.44 1.984-.881 3.196-.661 1.874-1.212 3.196-1.653 3.857-.772.992-1.763 1.543-3.086 1.653-.44 0-.992 0-1.873-.11 1.432.551 2.424 1.433 2.865 2.314.22.441.22.882.22 1.323 0 .44-.11 1.102-.33 1.983-.11.441-.441 1.323-.882 2.645l-.661 2.204-7.053-2.314.44-1.212c.442-1.433.772-2.425.772-3.086.11-.881-.22-1.653-.881-1.983-.441-.22-1.433-.662-3.086-1.213l-10.139-3.306-1.983 5.951-7.053-2.204m11.02-9.477l10.139 3.306c1.542.44 2.424.771 2.644.771.992.22 1.764.22 2.204-.33.331-.33.662-.992.882-1.874.22-.771.33-1.432.33-1.873 0-.661-.55-1.212-1.432-1.543-.33-.11-1.322-.44-2.865-.992l-10.139-3.306-1.763 5.84m44.632 32.62v-4.738l-14.657-7.494-3.747 2.755-7.714-3.967 22.922-16.09 10.47 5.29.33 27.992-7.604-3.747m.11-10.69v-10.58l-1.322-.66-8.486 6.17 9.808 5.07m18.624-7.935l24.575 17.302-3.636 5.18-9.037-6.392-10.58 15.098-6.501-4.519 10.58-15.097-9.037-6.392 3.636-5.18m16.64 32.84l5.4 4.96c-.88.881-1.211 1.653-.991 2.204.11.33.22.55.44.882.221.22.662.66 1.213 1.322.33.33 1.322 1.212 3.086 2.865 2.424 2.204 3.747 3.416 4.187 3.747.772.551 1.323.882 1.653.992.441.11 1.102-.22 1.653-.882.441-.44.662-.881.551-1.212 0-.55-.55-1.212-1.542-2.204-.662-.661-2.094-1.984-4.188-4.188-2.204-2.204-3.637-3.636-4.298-4.187-1.763-1.653-2.755-2.976-3.196-4.078-.55-1.322-.44-2.645.33-3.967.442-.772.993-1.653 1.984-2.645 1.874-2.094 3.637-3.196 5.18-3.306 1.212-.11 2.424.33 3.857 1.212 1.212.772 3.857 3.086 8.045 6.723 2.645 2.424 4.408 4.187 5.4 5.29 1.212 1.542 1.983 2.864 2.094 3.856.22 1.543-.551 3.196-2.204 4.96-.22.22-.441.55-.882.881l-5.4-4.96c.33-.44.661-.77.771-.99.331-.662.22-1.323-.44-1.985-.551-.66-2.094-1.983-4.408-4.187-2.315-2.094-3.858-3.306-4.409-3.637-.66-.33-1.212-.11-1.873.551-.551.661-.661 1.323-.33 1.874.33.55 2.203 2.424 5.62 5.73 3.085 2.976 5.069 4.96 5.84 5.84.772.993 1.323 1.764 1.543 2.535.33.772.33 1.543.22 2.315-.22 1.212-.991 2.534-2.424 4.187-1.653 1.764-3.086 2.866-4.298 3.306-1.212.441-2.534.331-3.857-.33-1.322-.661-4.298-3.086-9.036-7.384-2.866-2.534-4.85-4.518-5.951-5.84-1.433-1.543-2.204-2.976-2.425-4.078-.22-1.212.11-2.424.882-3.526.33-.551.881-1.213 1.432-1.874l.772-.771M256 0C114.61 0 0 114.61 0 256s114.61 256 256 256 256-114.61 256-256S397.39 0 256 0m0 7.714c137.092 0 248.286 111.194 248.286 248.286S393.092 504.286 256 504.286 7.714 393.092 7.714 256.11C7.714 119.13 118.908 7.714 256 7.714m0 36.808c-117.145 0-212.03 94.994-212.03 212.029 0 117.145 94.995 212.03 212.03 212.03 117.145 0 212.03-94.995 212.03-212.03 0-117.145-94.885-212.03-212.03-212.03m0 7.164c113.178 0 204.866 91.688 204.866 204.866 0 113.178-91.688 204.866-204.866 204.866-113.178 0-204.866-91.688-204.866-204.866 0-113.068 91.798-204.866 204.866-204.866M40.114 169.38l-2.976 6.061c-.992-.44-1.653-.771-1.983-.882-1.433-.77-2.425-1.542-3.086-2.424-.661-.882-.882-2.094-.551-3.637.33-1.653 1.432-4.298 3.196-7.824 1.983-3.967 3.306-6.612 4.187-7.824a26.442 26.442 0 011.984-2.755c.551-.662 1.212-1.102 1.874-1.323.881-.33 1.873-.33 2.975 0s3.196 1.212 6.061 2.645c2.865 1.433 4.739 2.424 5.62 3.086 1.323.991 2.094 2.094 2.315 3.306.11.992-.11 2.314-.662 3.967-.55 1.763-1.983 4.629-4.077 8.816-1.212 2.535-2.204 4.188-2.865 5.29-.992 1.543-1.874 2.535-2.645 3.086-.992.66-2.094.771-3.306.44a11.047 11.047 0 01-2.755-1.102c-.22-.11-.551-.33-1.102-.55l2.975-6.062c.441.22.882.33.992.441.661.22 1.102.11 1.543-.22.55-.551 1.653-2.425 3.196-5.4.991-2.094 1.653-3.527 1.983-4.408.33-.992.11-1.874-.66-2.535-.662-.551-1.764-1.212-3.417-2.094s-2.865-1.322-3.637-1.433c-.992-.22-1.763.22-2.424 1.213-.551.771-1.323 2.204-2.425 4.408-1.102 2.314-1.873 3.857-2.204 4.738-.33.882-.22 1.433.11 1.874.22.22.772.55 1.764 1.102m5.62 27.33c-1.212 4.408-2.204 7.494-2.975 9.147-.992 2.424-2.645 3.526-4.85 3.526-1.542 0-3.856-.44-7.163-1.432-3.306-.992-5.62-1.763-6.832-2.535-1.874-1.102-2.645-2.975-2.204-5.51.22-1.763.992-4.96 2.314-9.588s2.314-7.714 2.976-9.367c.991-2.424 2.644-3.526 4.848-3.526 1.543 0 3.858.44 7.164 1.432 3.306.992 5.62 1.764 6.942 2.535 1.874 1.102 2.645 2.975 2.204 5.51-.33 1.874-1.102 5.07-2.424 9.808m-5.4-2.094c.882-3.196 1.433-5.18 1.433-5.95 0-.882-.33-1.543-.992-1.984-.661-.441-2.094-.992-4.078-1.543-1.322-.33-2.314-.551-2.865-.551-1.102 0-1.984.55-2.535 1.873-.44.882-.991 2.755-1.763 5.51a107.482 107.482 0 00-1.432 5.62c-.22 1.323.22 2.315 1.212 2.866.55.33 1.432.661 2.645.992 1.543.44 2.645.661 3.306.771 1.102.11 1.873 0 2.424-.44.441-.331.992-1.323 1.433-2.756.11-.55.55-1.983 1.212-4.408m.661 18.735l-1.102 6.942-16.2-2.644-2.534 15.428-5.51-.882 3.636-22.481 21.71 3.637m-3.636 23.252l-.22 7.053-16.421-.44-.44 15.648-5.621-.11.661-22.702 22.04.551m.331 39.563c.33 4.629.441 7.824.33 9.588-.11 2.644-1.211 4.298-3.305 4.959-1.433.55-3.857.881-7.274 1.102-3.416.22-5.84.22-7.383-.11-2.094-.441-3.416-1.874-3.967-4.409-.331-1.763-.772-4.959-1.102-9.808-.331-4.738-.441-8.044-.331-9.808.11-2.644 1.212-4.297 3.306-4.959 1.433-.55 3.857-.881 7.273-1.102 3.417-.22 5.951-.22 7.384.11 2.094.441 3.416 1.874 3.967 4.409.441 1.763.772 5.069 1.102 10.028m-5.73 0c-.22-3.306-.441-5.4-.662-6.061-.33-.882-.881-1.323-1.653-1.543-.771-.22-2.204-.22-4.408 0-1.322.11-2.314.22-2.975.44-1.102.331-1.653 1.213-1.763 2.536-.11.991 0 2.975.22 5.73s.44 4.739.661 5.73c.22 1.323.992 2.094 2.094 2.315.661.11 1.543.11 2.865 0 1.543-.11 2.645-.22 3.306-.33 1.102-.221 1.764-.662 2.094-1.213s.441-1.543.441-3.086c.11-.66 0-2.094-.22-4.518m-1.213 39.893l1.433 6.612c-.992.22-1.763.441-2.094.551-1.543.331-2.865.331-3.967.11-1.102-.33-1.984-1.101-2.755-2.534-.772-1.543-1.543-4.188-2.425-8.045-.991-4.298-1.542-7.163-1.653-8.706-.22-1.432-.22-2.534-.11-3.416.11-.882.33-1.543.661-2.204.551-.882 1.213-1.433 2.315-1.874 1.102-.44 3.196-.991 6.391-1.763 3.086-.661 5.18-.992 6.282-1.102 1.653-.11 2.975.22 3.857 1.102.771.661 1.322 1.763 1.984 3.416.66 1.764 1.432 4.85 2.424 9.478.551 2.755.992 4.628 1.102 5.84.22 1.764.11 3.086-.22 4.078-.441 1.102-1.213 1.984-2.315 2.425-.771.33-1.763.66-2.865.881-.22 0-.55.11-1.212.22l-1.433-6.612c.551-.11.882-.22 1.102-.33.662-.22.992-.551.992-1.102.11-.772-.22-2.865-.992-6.171-.44-2.315-.881-3.858-1.212-4.629-.33-.992-1.102-1.543-2.094-1.543-.881 0-2.204.11-3.967.551-1.873.441-3.086.772-3.747 1.102-.881.441-1.212 1.212-1.102 2.425.11.991.33 2.534.882 4.959.55 2.534.992 4.187 1.322 5.069.33.882.661 1.322 1.323 1.433.33.11 1.102-.11 2.093-.22m3.417 35.044l2.755-3.196-5.4-13.445-4.188-.33-2.865-7.164 24.795 2.645 3.858 9.698-16.09 18.845-2.865-7.053m6.391-7.164l6.172-7.053-.551-1.212-9.367-.771 3.746 9.036m-2.093 17.082l19.285-10.69 7.935 14.216c1.873 3.306 2.975 5.29 3.195 5.951.331.772.441 1.433.441 2.204 0 .772-.22 1.433-.55 1.984-.331.661-.882 1.102-1.433 1.543-.662.44-1.433.992-2.535 1.543-1.543.881-2.755 1.432-3.416 1.542-1.102.22-2.094-.11-2.976-.771-.33-.22-.661-.661-1.102-1.212.551 1.322.772 2.314.441 3.196-.11.44-.33.771-.661.991-.33.331-.772.662-1.433 1.102-.33.22-1.102.551-2.094 1.213l-1.763.991-3.196-5.73.992-.551c1.102-.661 1.984-1.102 2.424-1.543.662-.55.882-1.212.662-1.873-.11-.441-.551-1.323-1.323-2.645l-4.628-8.265-4.85 2.755-3.415-5.951m12.893.33l4.629 8.266c.661 1.212 1.102 1.983 1.322 2.204.551.771 1.102 1.212 1.653 1.102.441 0 .992-.22 1.763-.662.662-.33 1.103-.66 1.323-.991.33-.441.33-1.102 0-1.874-.11-.22-.551-1.102-1.323-2.424l-4.628-8.265-4.739 2.644M72.183 375.9l14.216 19.837-4.188 2.975-10.36-14.436-2.534 1.873 9.808 13.775-3.967 2.865-9.808-13.775-2.865 2.094 10.359 14.547-4.298 3.085-14.216-19.946L72.183 375.9m31.958 38.57c3.306 3.197 5.51 5.511 6.612 6.944 1.653 1.983 1.874 3.967.882 5.95-.771 1.323-2.314 3.196-4.629 5.731-2.424 2.425-4.187 4.078-5.51 4.849-1.873 1.102-3.857.882-5.95-.661-1.433-1.102-3.858-3.306-7.274-6.612s-5.73-5.62-6.832-7.053c-1.654-1.984-1.874-3.968-.882-5.951.771-1.323 2.314-3.196 4.628-5.62 2.425-2.535 4.298-4.078 5.51-4.85 1.874-1.101 3.858-.881 5.951.662 1.543 1.102 3.968 3.306 7.494 6.612m-4.298 3.857c-2.424-2.314-3.967-3.747-4.628-4.077-.772-.441-1.543-.441-2.314-.11-.772.44-1.764 1.322-3.307 2.864-.991.992-1.542 1.764-1.873 2.315-.551.991-.44 1.983.44 3.085.662.772 1.984 2.204 3.968 4.188 2.094 1.984 3.527 3.306 4.298 3.857 1.102.882 2.094.882 3.086.33.55-.33 1.212-.991 2.204-1.873 1.102-1.102 1.873-1.983 2.204-2.534.661-.882.881-1.653.771-2.315-.11-.55-.661-1.432-1.763-2.534-.33-.44-1.322-1.543-3.086-3.196m25.457 30.636l5.51 3.857a72.705 72.705 0 01-1.212 1.874c-.882 1.322-1.874 2.204-2.865 2.755s-2.204.55-3.637 0c-1.543-.551-4.077-1.984-7.273-4.188-3.637-2.535-6.061-4.188-7.164-5.18-1.102-.881-1.873-1.652-2.424-2.314-.551-.66-.882-1.322-.992-2.094-.22-.991-.11-1.983.33-2.975.442-1.102 1.654-2.975 3.527-5.62 1.764-2.645 3.086-4.298 3.857-5.07 1.102-1.212 2.315-1.873 3.637-1.873.992 0 2.204.33 3.857 1.212 1.653.882 4.408 2.535 8.265 5.18 2.315 1.543 3.857 2.755 4.85 3.526 1.322 1.102 2.203 2.204 2.644 3.086.44 1.102.44 2.204 0 3.416a16.15 16.15 0 01-1.433 2.645c-.11.11-.33.551-.771.992l-5.51-3.857c.33-.441.44-.772.55-.992.332-.551.332-1.102 0-1.543-.44-.661-2.093-1.984-4.958-3.857-1.874-1.322-3.306-2.204-4.078-2.535-.991-.44-1.873-.33-2.645.331-.66.551-1.432 1.653-2.534 3.086-1.102 1.543-1.763 2.645-1.984 3.416-.33.882 0 1.763.882 2.535.661.66 2.094 1.653 3.967 2.975 2.094 1.433 3.637 2.425 4.408 2.865.772.441 1.433.441 1.874.22.22-.55.771-1.101 1.322-1.873m27.11 15.87l5.84 3.305c-.44.992-.77 1.654-.991 1.984-.772 1.433-1.653 2.425-2.535 2.976-.992.66-2.204.771-3.637.33-1.653-.44-4.187-1.543-7.714-3.526-3.857-2.094-6.392-3.637-7.714-4.518a15.67 15.67 0 01-2.645-2.094c-.55-.661-.992-1.323-1.212-1.984-.33-.882-.22-1.873.11-2.975s1.323-3.086 2.976-5.951c1.542-2.755 2.644-4.519 3.306-5.4.992-1.323 2.094-2.094 3.416-2.204.992-.11 2.314.22 3.857.771 1.653.661 4.629 2.094 8.706 4.408 2.425 1.323 4.188 2.425 5.07 3.086 1.432.992 2.424 1.984 2.865 2.755.55 1.102.66 2.204.33 3.306-.22.882-.661 1.763-1.212 2.755-.11.22-.33.551-.661 1.102l-5.841-3.306c.22-.44.44-.771.44-.992.221-.661.221-1.102-.22-1.543-.55-.55-2.314-1.763-5.29-3.416-1.983-1.102-3.416-1.873-4.297-2.204-.992-.44-1.874-.22-2.645.551-.551.661-1.322 1.763-2.204 3.306-.882 1.653-1.433 2.865-1.653 3.527-.22.991.11 1.763 1.102 2.424.771.551 2.204 1.433 4.298 2.535 2.204 1.212 3.857 2.094 4.628 2.424.772.33 1.433.33 1.984 0 .661 0 1.102-.55 1.543-1.432m28.212 21.6l-.441-4.188-13.555-5.18-3.086 2.755-7.163-2.755 18.845-16.42 9.697 3.747 2.866 24.685-7.163-2.645m-.882-9.477l-.992-9.367-1.212-.441-6.943 6.281 9.147 3.527m12.122 5.51l6.282 1.543c-.22 1.102-.22 1.763.11 2.204.22.22.44.33.661.44.33.11.772.331 1.543.441.33.11 1.543.441 3.637.882 2.755.661 4.408.992 4.849 1.102.881.11 1.432.11 1.763 0 .44-.11.771-.661.881-1.433.11-.55.11-.991-.11-1.212-.22-.33-.992-.771-2.094-.992-.771-.22-2.534-.66-5.069-1.432-2.645-.772-4.408-1.212-5.18-1.433-2.093-.55-3.416-1.102-4.187-1.763-.992-.772-1.433-1.874-1.543-3.196 0-.771.11-1.763.33-2.865.552-2.425 1.433-4.078 2.645-4.85.882-.55 1.984-.88 3.527-.77 1.322.11 4.408.66 9.147 1.763 3.085.771 5.29 1.322 6.502 1.763 1.653.661 2.755 1.322 3.306 2.094.771 1.102.992 2.645.44 4.849 0 .22-.11.55-.22 1.102l-6.281-1.543c.11-.551.11-.882.11-1.102 0-.661-.441-1.102-1.212-1.323-.662-.22-2.425-.66-5.29-1.322-2.755-.661-4.408-.992-4.96-.882-.66 0-.991.441-1.211 1.213-.22.771 0 1.322.55 1.542.441.22 2.756.882 6.833 1.984 3.747.992 6.061 1.653 7.053 2.094.992.44 1.763.882 2.314 1.322.551.441.882.992 1.213 1.653.33.992.33 2.425-.11 4.298-.441 2.094-1.103 3.637-1.874 4.408-.772.882-1.874 1.323-3.196 1.323-1.322.11-4.739-.551-10.139-1.874-3.306-.771-5.73-1.432-7.163-1.983-1.763-.662-2.975-1.323-3.636-2.094-.662-.882-.992-1.874-.882-3.086 0-.55.22-1.322.33-2.094l.331-.771m32.069-8.265l6.943.992-2.976 21.82-6.832-.992 2.865-21.82m25.236 2.314c4.629.22 7.825.44 9.588.771 2.535.441 4.077 1.764 4.518 3.857.33 1.433.441 3.858.22 7.384-.11 3.416-.44 5.84-.881 7.273-.661 2.094-2.314 3.196-4.849 3.417-1.763.11-5.07.11-9.808-.11-4.739-.221-8.045-.442-9.808-.772-2.535-.441-4.077-1.763-4.518-3.857-.33-1.433-.441-3.857-.22-7.384.11-3.416.44-5.84.881-7.273.661-2.094 2.314-3.196 4.849-3.416 1.763-.22 5.07-.22 10.028.11m-.771 5.73c-3.416-.11-5.4-.11-6.171 0-.882.22-1.433.662-1.764 1.433-.22.772-.44 2.204-.55 4.298-.11 1.322 0 2.314.11 2.975.22 1.102.991 1.764 2.314 1.984.992.22 2.865.33 5.73.44 2.866.111 4.739.111 5.73.111 1.323-.11 2.205-.66 2.535-1.763.22-.551.331-1.543.331-2.865.11-1.543.11-2.755 0-3.416-.11-1.103-.44-1.874-.882-2.205-.44-.33-1.432-.66-2.975-.77-.44 0-1.984-.221-4.408-.221m16.86-5.29l11.682-1.433 13.445 14.878.661-.11-2.094-16.31 6.833-.772 2.645 21.93-11.571 1.433-13.445-14.988-.772.11 2.094 16.31-6.832.772-2.645-21.82m32.62-4.408l23.583-6.282 1.322 4.96-17.191 4.628.771 3.086 16.31-4.298 1.213 4.628-16.31 4.298.881 3.416 17.302-4.628 1.322 5.07-23.693 6.28-5.51-21.158m25.346-6.061l11.351-4.629 11.461 10.8.661-15.759 11.241-4.628 8.375 20.387-6.17 2.535-6.062-15.318-.992.44-1.433 18.404-5.179 2.094-13.886-12.122-1.102.44 6.392 15.209-6.171 2.534-8.486-20.387m43.86-20.718l5.842-3.968 9.146 13.555 13.004-8.816 3.196 4.629-18.845 12.893-12.342-18.293m20.938-14.216l5.62-4.298 13.335 17.522-5.62 4.298-13.335-17.522m23.253 10.138l-14.877-16.31 11.681-10.69c2.535-2.314 3.967-3.636 4.518-3.967 1.102-.881 2.094-1.432 2.866-1.542.881-.11 1.763 0 2.534.44.772.441 1.433 1.102 2.094 1.874.882.992 1.433 1.763 1.653 2.424.441 1.102.22 2.204-.44 3.417.881-.551 1.542-.882 2.093-.882 1.323-.22 2.755.55 4.298 2.314 1.212 1.323 1.874 2.535 2.094 3.527.11.881-.11 1.763-.661 2.645-.441.77-1.433 1.763-2.976 3.195l-3.196 2.976-11.681 10.58m-4.298-13.996l6.943-6.392c1.543-1.433 2.424-2.314 2.534-2.645.22-.551.11-1.102-.44-1.653-.551-.661-1.213-.771-1.764-.551-.22.11-1.102.882-2.644 2.314l-6.943 6.392 2.314 2.535m5.51 5.84l7.053-6.391c1.323-1.213 2.094-1.874 2.314-2.094.662-.662.992-1.213.992-1.653 0-.331-.22-.772-.661-1.213-.661-.66-1.212-.881-1.873-.55-.22.11-1.323 1.101-3.196 2.865l-7.053 6.391 2.424 2.645m5.62-28.211l15.98-18.515 3.967 3.417-11.571 13.444 2.424 2.094 11.02-12.783 3.637 3.196-11.02 12.783 2.645 2.314 11.681-13.554 3.968 3.416-15.98 18.624-16.75-14.436m35.264-7.715l-18.624-11.791 8.706-13.665c2.094-3.196 3.306-5.07 3.747-5.62.44-.662 1.102-1.103 1.763-1.433.661-.331 1.323-.551 1.984-.441.771 0 1.432.22 1.983.55.772.331 1.543.882 2.535 1.433 1.543.992 2.535 1.764 2.976 2.315.66.881.881 1.873.66 2.975-.11.33-.22.882-.55 1.543.881-1.102 1.763-1.763 2.645-1.873.44-.11.771 0 1.212.11.44.11.992.33 1.653.771.33.22.992.661 2.094 1.323l1.763 1.102-3.527 5.62-.991-.661c-1.102-.661-1.984-1.212-2.535-1.323-.771-.33-1.433-.22-1.873.331-.331.33-.882 1.102-1.653 2.424l-5.07 7.935 4.739 2.975-3.637 5.4m-5.73-11.57l5.069-7.935c.771-1.213 1.212-1.874 1.322-2.094.441-.882.551-1.543.22-1.984-.22-.33-.66-.771-1.432-1.212-.661-.44-1.102-.661-1.543-.661-.55-.11-1.102.22-1.653.881-.22.22-.66.992-1.543 2.315l-5.069 7.934 4.629 2.755m31.738-37.689l-4.188.33-5.51 13.445 2.755 3.196-2.865 7.053-15.98-19.065 3.968-9.698 24.795-2.314-2.975 7.053m-9.477.551l-9.368.771-.55 1.213 6.17 7.053 3.748-9.037m13.224-10.8l-21.159-6.171 4.408-15.208c.992-3.196 1.543-5.18 1.763-5.73.441-1.323.992-2.315 1.653-2.866a3.85 3.85 0 012.425-.882c.881 0 1.763.22 2.755.441 1.212.33 2.094.772 2.755 1.213.882.66 1.322 1.763 1.322 3.085.441-.881.882-1.543 1.323-1.873.992-.882 2.645-.882 4.849-.22 1.763.55 2.975 1.101 3.636 1.873.551.661.882 1.543.882 2.645 0 .881-.33 2.314-.882 4.298l-1.212 4.187-4.518 15.208m-11.02-9.918l2.644-9.037c.551-1.983.882-3.196.772-3.636 0-.551-.44-.992-1.323-1.213-.881-.22-1.432-.11-1.763.441-.11.22-.55 1.323-1.102 3.417l-2.645 9.036 3.417.992m7.714 2.204l2.645-9.147c.44-1.653.771-2.645.881-2.975.22-.992.22-1.653 0-1.984-.22-.22-.55-.44-1.102-.661-.881-.22-1.543-.11-1.873.55-.11.221-.551 1.544-1.323 4.078l-2.645 9.147 3.417.992m-9.698-27.44l1.212-6.613 9.918 1.874c2.315.44 3.747.55 4.409.55 1.101 0 1.763-.66 2.204-1.762.33-1.102.77-2.755 1.212-5.07.44-2.314.661-3.967.771-4.959 0-1.432-.55-2.314-1.983-2.755-1.103-.33-2.315-.661-3.747-.881l-9.919-1.874 1.213-6.612 9.918 1.873c3.416.772 5.73 1.323 6.722 1.653 1.763.551 2.865 1.764 3.527 3.307.44 1.212.44 3.085.11 5.73-.11 1.212-.44 3.086-.992 5.62-.661 3.747-1.322 6.282-1.873 7.825-.33 1.102-.772 2.094-1.212 2.645-.441.66-.882 1.212-1.543 1.542-.882.551-1.764.772-2.866.772-1.212 0-2.755-.22-4.518-.551l-2.755-.441-9.808-1.873m5.73-28.763l-.11-11.792 16.31-11.792v-.66l-16.42.33-.11-6.833 22.04-.22.11 11.681-16.31 11.682v.771l16.42-.33.111 6.832-22.04.33m-.772-32.509l-2.865-26.559 5.62-.66 1.102 9.697 16.31-1.763.772 7.053-16.31 1.763 1.102 9.808-5.73.661m-2.646-26.669l-1.763-6.502 9.808-2.645c2.204-.66 3.637-1.102 4.188-1.432.992-.441 1.322-1.323 1.212-2.645-.11-1.102-.551-2.865-1.102-5.07-.661-2.314-1.102-3.857-1.543-4.848-.55-1.323-1.543-1.874-2.975-1.653-1.102.22-2.425.44-3.747.881l-9.808 2.645-1.763-6.502 9.808-2.645c3.416-.881 5.73-1.322 6.722-1.543 1.873-.22 3.416.22 4.628 1.433.882.882 1.764 2.645 2.645 5.07.331 1.101.882 2.975 1.543 5.4.992 3.636 1.653 6.28 1.763 7.824.11 1.212.22 2.204.11 2.975a6.655 6.655 0 01-.66 2.094c-.552.882-1.323 1.543-2.315 1.984-1.102.55-2.534.991-4.187 1.542l-2.755.772-9.808 2.865m11.901-38.35l-20.277 8.706-6.392-14.878c-1.542-3.526-2.314-5.62-2.534-6.281-.22-.772-.331-1.543-.22-2.204.11-.772.33-1.433.77-1.984.442-.55.993-1.102 1.544-1.432.66-.441 1.542-.882 2.644-1.323 1.654-.661 2.866-1.102 3.637-1.102 1.102-.11 2.094.33 2.865 1.102.22.22.551.661.992 1.323-.44-1.323-.44-2.425-.11-3.306.22-.331.44-.662.771-.992.331-.22.882-.551 1.543-.882.33-.22 1.102-.44 2.204-.992l1.874-.771 2.644 6.061-1.102.44c-1.212.552-2.093.993-2.534 1.323-.661.441-.992 1.102-.772 1.763.11.441.441 1.433.992 2.755l3.747 8.706 5.18-2.204 2.534 6.172m-12.893-1.763l-3.747-8.706c-.551-1.323-.882-2.094-.992-2.315-.44-.881-.882-1.322-1.543-1.322-.44 0-.992.11-1.763.44-.661.331-1.212.552-1.433.882-.44.441-.44.992-.22 1.874.11.33.44 1.102.992 2.534l3.747 8.706 4.959-2.093"></path></svg>